<mxfile host="app.diagrams.net" agent="Mozilla/5.0 (Windows NT 10.0; Win64; x64) AppleWebKit/537.36 (KHTML, like Gecko) Chrome/133.0.0.0 Safari/537.36" version="26.0.16">
  <diagram name="Страница — 1" id="V5wHVNc-YTuHr5qQhysM">
    <mxGraphModel dx="1050" dy="565" grid="1" gridSize="10" guides="1" tooltips="1" connect="1" arrows="1" fold="1" page="1" pageScale="1" pageWidth="827" pageHeight="1169" math="0" shadow="0">
      <root>
        <mxCell id="0" />
        <mxCell id="1" parent="0" />
        <mxCell id="n_IOgk7gt3mygnuEDZBm-1" value="&lt;div style=&quot;&quot;&gt;Windows 10 Pro&amp;nbsp;&lt;span style=&quot;background-color: transparent;&quot;&gt;10.0.19045&lt;/span&gt;&lt;/div&gt;&lt;div&gt;&lt;span style=&quot;background-color: transparent; color: light-dark(rgb(0, 0, 0), rgb(255, 255, 255));&quot;&gt;&lt;br&gt;&lt;/span&gt;&lt;/div&gt;" style="verticalAlign=top;align=center;spacingTop=8;spacingLeft=2;spacingRight=12;shape=cube;size=10;direction=south;fontStyle=4;html=1;whiteSpace=wrap;fontFamily=Times New Roman;fontSize=14;" vertex="1" parent="1">
          <mxGeometry x="95" y="33" width="617" height="481" as="geometry" />
        </mxCell>
        <mxCell id="n_IOgk7gt3mygnuEDZBm-2" value="&lt;div style=&quot;&quot;&gt;&lt;div&gt;&lt;font face=&quot;Times New Roman&quot; style=&quot;color: rgb(0, 0, 0); font-size: 13px;&quot;&gt;Chrome Browser v&lt;span style=&quot;text-align: start;&quot;&gt;133.0.6943.127&lt;/span&gt;&lt;/font&gt;&lt;br&gt;&lt;/div&gt;&lt;div&gt;&lt;/div&gt;&lt;/div&gt;" style="verticalAlign=top;align=center;spacingTop=8;spacingLeft=2;spacingRight=12;shape=cube;size=10;direction=south;fontStyle=4;html=1;whiteSpace=wrap;fontFamily=Times New Roman;fontSize=14;" vertex="1" parent="1">
          <mxGeometry x="121" y="82" width="146" height="159" as="geometry" />
        </mxCell>
        <mxCell id="n_IOgk7gt3mygnuEDZBm-3" value="&lt;div style=&quot;&quot;&gt;Application Server&lt;/div&gt;" style="verticalAlign=top;align=center;spacingTop=8;spacingLeft=2;spacingRight=12;shape=cube;size=10;direction=south;fontStyle=4;html=1;whiteSpace=wrap;fontFamily=Times New Roman;fontSize=14;" vertex="1" parent="1">
          <mxGeometry x="473" y="82" width="183" height="177" as="geometry" />
        </mxCell>
        <mxCell id="n_IOgk7gt3mygnuEDZBm-4" value="&lt;font face=&quot;Times New Roman&quot;&gt;NodeJS 22.13.1&amp;nbsp;&lt;/font&gt;&lt;div style=&quot;&quot;&gt;&lt;font face=&quot;Times New Roman&quot;&gt;ExpressJS&amp;nbsp;&lt;span style=&quot;white-space: pre;&quot;&gt;&lt;font style=&quot;color: rgb(0, 0, 0);&quot;&gt;4.21.2&lt;/font&gt;&lt;/span&gt;&lt;/font&gt;&lt;div style=&quot;&quot;&gt;&lt;font face=&quot;Times New Roman&quot;&gt;socket.io 4.8.1&lt;/font&gt;&lt;/div&gt;&lt;div style=&quot;&quot;&gt;&lt;div style=&quot;line-height: 19px; white-space: pre;&quot;&gt;&lt;span&gt;&lt;font face=&quot;Times New Roman&quot; style=&quot;color: rgb(0, 0, 0);&quot;&gt;sequelize ORM &lt;/font&gt;&lt;/span&gt;&lt;span style=&quot;color: light-dark(rgb(0, 0, 0), rgb(237, 237, 237)); background-color: transparent;&quot;&gt;6.37.5&lt;/span&gt;&lt;/div&gt;&lt;div style=&quot;line-height: 19px; white-space: pre;&quot;&gt;&lt;div style=&quot;line-height: 19px;&quot;&gt;&lt;font face=&quot;Times New Roman&quot; style=&quot;color: rgb(0, 0, 0);&quot;&gt;pg 8.13.3&lt;/font&gt;&lt;/div&gt;&lt;/div&gt;&lt;/div&gt;&lt;/div&gt;" style="shape=module;align=left;spacingLeft=20;align=center;verticalAlign=top;whiteSpace=wrap;html=1;fontFamily=Times New Roman;fontSize=14;" vertex="1" parent="1">
          <mxGeometry x="484" y="128" width="149" height="107" as="geometry" />
        </mxCell>
        <mxCell id="n_IOgk7gt3mygnuEDZBm-5" value="ReactJS 18.2.0&lt;div&gt;Axios 1.5.1&lt;/div&gt;" style="shape=module;align=left;spacingLeft=20;align=center;verticalAlign=top;whiteSpace=wrap;html=1;fontFamily=Times New Roman;fontSize=14;" vertex="1" parent="1">
          <mxGeometry x="130" y="152" width="116" height="59" as="geometry" />
        </mxCell>
        <UserObject label="" link="Node.js v18.17.1" id="n_IOgk7gt3mygnuEDZBm-6">
          <mxCell style="verticalAlign=top;align=left;spacingTop=8;spacingLeft=2;spacingRight=12;shape=cube;size=10;direction=south;fontStyle=4;html=1;whiteSpace=wrap;" vertex="1" parent="1">
            <mxGeometry x="470.5" y="347" width="194" height="141" as="geometry" />
          </mxCell>
        </UserObject>
        <mxCell id="n_IOgk7gt3mygnuEDZBm-7" value="&lt;div&gt;&lt;font style=&quot;font-size: 14px;&quot; face=&quot;Times New Roman&quot;&gt;&lt;br&gt;&lt;/font&gt;&lt;/div&gt;&lt;div&gt;&lt;div&gt;&lt;font face=&quot;Times New Roman&quot; style=&quot;font-size: 14px;&quot;&gt;Database Server&lt;/font&gt;&lt;/div&gt;&lt;/div&gt;" style="text;html=1;align=center;verticalAlign=middle;whiteSpace=wrap;rounded=0;" vertex="1" parent="1">
          <mxGeometry x="462.5" y="355.1700000000001" width="204" height="34.5" as="geometry" />
        </mxCell>
        <mxCell id="n_IOgk7gt3mygnuEDZBm-8" value="&lt;font style=&quot;font-size: 14px;&quot; face=&quot;Times New Roman&quot;&gt;PostgreSQL 17.2&lt;/font&gt;" style="shape=cylinder3;whiteSpace=wrap;html=1;boundedLbl=1;backgroundOutline=1;size=15;" vertex="1" parent="1">
          <mxGeometry x="485.5" y="397.63" width="152" height="80" as="geometry" />
        </mxCell>
        <mxCell id="n_IOgk7gt3mygnuEDZBm-9" value="" style="endArrow=classic;startArrow=classic;html=1;rounded=0;" edge="1" parent="1">
          <mxGeometry width="50" height="50" relative="1" as="geometry">
            <mxPoint x="561" y="255.17" as="sourcePoint" />
            <mxPoint x="561" y="355.17" as="targetPoint" />
          </mxGeometry>
        </mxCell>
        <mxCell id="n_IOgk7gt3mygnuEDZBm-10" value="" style="endArrow=classic;startArrow=classic;html=1;rounded=0;exitX=0.522;exitY=0.023;exitDx=0;exitDy=0;exitPerimeter=0;entryX=0.46;entryY=0.995;entryDx=0;entryDy=0;entryPerimeter=0;labelBackgroundColor=default;" edge="1" parent="1">
          <mxGeometry width="50" height="50" relative="1" as="geometry">
            <mxPoint x="263" y="121" as="sourcePoint" />
            <mxPoint x="473" y="121" as="targetPoint" />
          </mxGeometry>
        </mxCell>
        <mxCell id="n_IOgk7gt3mygnuEDZBm-11" value="&lt;font style=&quot;font-size: 14px;&quot; face=&quot;Times New Roman&quot;&gt;WebSocket 13&lt;/font&gt;" style="text;html=1;align=center;verticalAlign=middle;whiteSpace=wrap;rounded=0;labelBackgroundColor=default;labelBorderColor=none;" vertex="1" parent="1">
          <mxGeometry x="314" y="106" width="103" height="30" as="geometry" />
        </mxCell>
        <mxCell id="n_IOgk7gt3mygnuEDZBm-12" value="" style="endArrow=classic;startArrow=classic;html=1;rounded=0;exitX=0.522;exitY=0.023;exitDx=0;exitDy=0;exitPerimeter=0;entryX=0.46;entryY=0.995;entryDx=0;entryDy=0;entryPerimeter=0;labelBackgroundColor=default;" edge="1" parent="1">
          <mxGeometry width="50" height="50" relative="1" as="geometry">
            <mxPoint x="263" y="170" as="sourcePoint" />
            <mxPoint x="473" y="170" as="targetPoint" />
          </mxGeometry>
        </mxCell>
        <mxCell id="n_IOgk7gt3mygnuEDZBm-13" value="&lt;font style=&quot;font-size: 14px;&quot; face=&quot;Times New Roman&quot;&gt;HTTP 1.1&lt;/font&gt;" style="text;html=1;align=center;verticalAlign=middle;whiteSpace=wrap;rounded=0;labelBackgroundColor=default;labelBorderColor=none;" vertex="1" parent="1">
          <mxGeometry x="314" y="154.5" width="103" height="30" as="geometry" />
        </mxCell>
        <mxCell id="n_IOgk7gt3mygnuEDZBm-14" value="&lt;font style=&quot;font-size: 14px;&quot; face=&quot;Times New Roman&quot;&gt;TCP/IP&lt;/font&gt;" style="text;html=1;align=center;verticalAlign=middle;whiteSpace=wrap;rounded=0;labelBackgroundColor=default;labelBorderColor=none;" vertex="1" parent="1">
          <mxGeometry x="513" y="294" width="103" height="30" as="geometry" />
        </mxCell>
      </root>
    </mxGraphModel>
  </diagram>
</mxfile>
